<svg width="375" height="812" viewBox="0 0 375 812" fill="none" xmlns="http://www.w3.org/2000/svg">
<g clip-path="url(#clip0_1_6573)">
<rect width="375" height="812" fill="url(#paint0_linear_1_6573)"/>
<rect width="375" height="812" fill="url(#paint1_linear_1_6573)"/>
<rect width="375" height="812" fill="url(#paint2_linear_1_6573)"/>
<g style="mix-blend-mode:multiply" opacity="0.6" filter="url(#filter0_f_1_6573)">
<circle cx="374.5" cy="811.5" r="226.5" fill="#83A0F8"/>
</g>
<g style="mix-blend-mode:multiply" opacity="0.6" filter="url(#filter1_f_1_6573)">
<circle cx="-0.5" cy="-0.5" r="226.5" fill="#83A0F8"/>
</g>
<path d="M70.5189 397.543C67.561 397.543 64.9919 396.932 62.8116 395.71C60.6452 394.474 58.9649 392.731 57.7706 390.482C56.5902 388.218 56 385.545 56 382.462V381.441C56 378.497 56.5694 375.893 57.7081 373.63C58.8607 371.352 60.4925 369.568 62.6033 368.276C64.728 366.985 67.2624 366.339 70.2064 366.339C72.2478 366.339 74.1712 366.631 75.9765 367.214C77.7818 367.797 79.3927 368.686 80.8092 369.88V377.213H76.289L75.6641 372.609C74.9697 372.123 74.1851 371.741 73.3102 371.463C72.4353 371.172 71.4493 371.026 70.3523 371.026C67.7832 371.026 65.7626 371.963 64.2906 373.838C62.8185 375.699 62.0825 378.219 62.0825 381.4V382.462C62.0825 385.656 62.8463 388.19 64.3739 390.065C65.9015 391.94 67.9845 392.877 70.6231 392.877C71.4979 392.877 72.3728 392.78 73.2477 392.586C74.1365 392.377 74.9419 392.113 75.6641 391.794L76.289 387.524H80.8092V394.773C79.6288 395.551 78.1568 396.21 76.3931 396.752C74.6295 397.279 72.6714 397.543 70.5189 397.543Z" fill="white"/>
<path d="M85.6072 397.106V393.461L88.8568 392.836V378.858L85.6072 378.233V374.567H96.3766L102.126 390.023H102.251L108.042 374.567H118.894V378.233L115.666 378.858V392.836L118.894 393.461V397.106H107.292V393.461L109.583 392.836V383.691L109.458 383.67L104.23 397.106H100.147L95.0434 383.92L94.9185 383.941V392.836L97.2306 393.461V397.106H85.6072Z" fill="white"/>
<path d="M129.31 397.543C127.074 397.543 125.296 396.946 123.977 395.752C122.658 394.544 121.998 392.905 121.998 390.836C121.998 388.725 122.852 387.003 124.56 385.67C126.282 384.337 128.81 383.67 132.143 383.67H135.121V382.004C135.121 380.921 134.802 380.046 134.163 379.379C133.538 378.699 132.594 378.358 131.33 378.358C130.678 378.358 130.087 378.442 129.56 378.608C129.046 378.761 128.581 378.983 128.164 379.275L127.685 382.254H123.311L123.227 376.4C124.408 375.734 125.685 375.192 127.06 374.775C128.435 374.359 129.969 374.151 131.664 374.151C134.608 374.151 136.934 374.838 138.642 376.213C140.35 377.588 141.204 379.539 141.204 382.066V391.357C141.204 391.662 141.204 391.961 141.204 392.252C141.218 392.544 141.246 392.836 141.287 393.127L143.641 393.461V397.106H136.1C135.948 396.717 135.795 396.3 135.642 395.856C135.489 395.412 135.378 394.967 135.309 394.523C134.587 395.439 133.733 396.175 132.747 396.731C131.775 397.273 130.629 397.543 129.31 397.543ZM130.935 393.044C131.782 393.044 132.58 392.856 133.33 392.481C134.094 392.093 134.691 391.586 135.121 390.961V387.399H132.122C130.789 387.399 129.775 387.704 129.081 388.315C128.4 388.926 128.06 389.662 128.06 390.523C128.06 391.329 128.31 391.954 128.81 392.398C129.324 392.829 130.032 393.044 130.935 393.044Z" fill="white"/>
<path d="M145.662 405.771V402.105L148.599 401.48V378.858L145.349 378.233V374.567H154.181L154.473 377.192C155.14 376.22 155.945 375.47 156.889 374.942C157.834 374.414 158.959 374.151 160.264 374.151C162.083 374.151 163.639 374.651 164.93 375.65C166.221 376.636 167.207 378.018 167.888 379.796C168.582 381.573 168.929 383.649 168.929 386.024V386.461C168.929 388.683 168.582 390.628 167.888 392.294C167.194 393.947 166.194 395.238 164.888 396.168C163.597 397.085 162.041 397.543 160.222 397.543C157.848 397.543 155.994 396.682 154.661 394.96V401.48L157.598 402.105V405.771H145.662ZM158.41 392.877C159.965 392.877 161.09 392.301 161.785 391.148C162.493 389.996 162.847 388.433 162.847 386.461V386.024C162.847 383.899 162.486 382.177 161.764 380.858C161.042 379.539 159.91 378.879 158.368 378.879C156.674 378.879 155.438 379.601 154.661 381.045V390.919C155.424 392.225 156.674 392.877 158.41 392.877Z" fill="white"/>
<path d="M176.033 397.106V393.461L179.261 392.836V379.212H175.491L175.262 382.254H170.596V374.567H194.134V382.254H189.468L189.218 379.212H185.365V392.836L188.594 393.461V397.106H176.033Z" fill="white"/>
<path d="M196.093 397.106L196.009 392.315L196.676 392.294C197.606 392.294 198.308 392.051 198.78 391.565C199.252 391.079 199.571 390.253 199.738 389.086C199.918 387.906 200.009 386.267 200.009 384.17V378.858L196.759 378.233V374.567H220.818V378.233L217.569 378.858V392.836L220.818 393.461V397.106H208.258V393.461L211.507 392.836V379.275H206.091V384.17C206.091 388.614 205.404 391.884 204.029 393.981C202.668 396.064 200.342 397.106 197.051 397.106H196.093Z" fill="white"/>
<path d="M231.13 397.543C228.894 397.543 227.116 396.946 225.797 395.752C224.478 394.544 223.818 392.905 223.818 390.836C223.818 388.725 224.672 387.003 226.38 385.67C228.102 384.337 230.63 383.67 233.963 383.67H236.941V382.004C236.941 380.921 236.622 380.046 235.983 379.379C235.358 378.699 234.414 378.358 233.15 378.358C232.497 378.358 231.907 378.442 231.38 378.608C230.866 378.761 230.4 378.983 229.984 379.275L229.505 382.254H225.13L225.047 376.4C226.227 375.734 227.505 375.192 228.88 374.775C230.255 374.359 231.789 374.151 233.483 374.151C236.427 374.151 238.754 374.838 240.462 376.213C242.17 377.588 243.024 379.539 243.024 382.066V391.357C243.024 391.662 243.024 391.961 243.024 392.252C243.038 392.544 243.065 392.836 243.107 393.127L245.461 393.461V397.106H237.92C237.768 396.717 237.615 396.3 237.462 395.856C237.309 395.412 237.198 394.967 237.129 394.523C236.407 395.439 235.553 396.175 234.567 396.731C233.595 397.273 232.449 397.543 231.13 397.543ZM232.754 393.044C233.601 393.044 234.4 392.856 235.15 392.481C235.914 392.093 236.511 391.586 236.941 390.961V387.399H233.942C232.609 387.399 231.595 387.704 230.9 388.315C230.22 388.926 229.88 389.662 229.88 390.523C229.88 391.329 230.13 391.954 230.63 392.398C231.143 392.829 231.852 393.044 232.754 393.044Z" fill="white"/>
<path d="M258.813 397.543C256.591 397.543 254.682 397.078 253.085 396.148C251.502 395.217 250.287 393.933 249.44 392.294C248.593 390.641 248.169 388.753 248.169 386.628V383.733C248.169 380.358 248.606 377.532 249.481 375.255C250.356 372.963 251.571 371.179 253.127 369.901C254.696 368.61 256.515 367.763 258.584 367.36C259.931 367.138 260.924 366.846 261.563 366.485C262.216 366.11 262.542 365.506 262.542 364.673H267.25L267.312 364.798C267.354 366.603 267.048 367.978 266.396 368.922C265.743 369.853 264.84 370.54 263.688 370.984C262.535 371.415 261.23 371.769 259.772 372.047C257.716 372.449 256.196 373.137 255.21 374.109C254.224 375.067 253.606 376.373 253.356 378.025L253.439 378.129C254.203 377.449 255.106 376.893 256.147 376.463C257.189 376.032 258.341 375.817 259.605 375.817C261.619 375.817 263.361 376.261 264.833 377.15C266.305 378.039 267.437 379.275 268.229 380.858C269.034 382.427 269.437 384.246 269.437 386.316V386.753C269.437 388.878 269.013 390.753 268.166 392.377C267.319 394.002 266.097 395.273 264.5 396.189C262.917 397.092 261.021 397.543 258.813 397.543ZM258.813 392.877C260.383 392.877 261.528 392.322 262.25 391.211C262.986 390.086 263.354 388.6 263.354 386.753V386.316C263.354 384.608 262.986 383.212 262.25 382.129C261.514 381.045 260.355 380.504 258.772 380.504C257.202 380.504 256.057 381.045 255.335 382.129C254.613 383.212 254.251 384.608 254.251 386.316V386.628C254.251 388.489 254.613 389.996 255.335 391.148C256.057 392.301 257.216 392.877 258.813 392.877Z" fill="white"/>
<path fill-rule="evenodd" clip-rule="evenodd" d="M318.999 382.886C318.999 390.739 312.633 397.106 304.779 397.106H279.894L279.893 397.106V372.221C279.893 364.367 286.26 358.001 294.113 358.001H318.999L318.999 358V382.886ZM301.225 368.665H297.67V375.775H290.56V379.331H297.67V386.441H301.225V379.331H308.335V375.775H301.225V368.665Z" fill="white"/>
</g>
<defs>
<filter id="filter0_f_1_6573" x="20" y="457" width="709" height="709" filterUnits="userSpaceOnUse" color-interpolation-filters="sRGB">
<feFlood flood-opacity="0" result="BackgroundImageFix"/>
<feBlend mode="normal" in="SourceGraphic" in2="BackgroundImageFix" result="shape"/>
<feGaussianBlur stdDeviation="64" result="effect1_foregroundBlur_1_6573"/>
</filter>
<filter id="filter1_f_1_6573" x="-355" y="-355" width="709" height="709" filterUnits="userSpaceOnUse" color-interpolation-filters="sRGB">
<feFlood flood-opacity="0" result="BackgroundImageFix"/>
<feBlend mode="normal" in="SourceGraphic" in2="BackgroundImageFix" result="shape"/>
<feGaussianBlur stdDeviation="64" result="effect1_foregroundBlur_1_6573"/>
</filter>
<linearGradient id="paint0_linear_1_6573" x1="0" y1="0" x2="375" y2="812" gradientUnits="userSpaceOnUse">
<stop stop-color="#A1CAFF"/>
<stop offset="0.489583" stop-color="#4D9CFF"/>
<stop offset="1" stop-color="#A1CAFF"/>
</linearGradient>
<linearGradient id="paint1_linear_1_6573" x1="375" y1="0" x2="375" y2="812" gradientUnits="userSpaceOnUse">
<stop stop-color="#74C8E4"/>
<stop offset="0.505208" stop-color="#73D5BC"/>
<stop offset="1" stop-color="#74C8E4"/>
</linearGradient>
<linearGradient id="paint2_linear_1_6573" x1="187.5" y1="0" x2="187.5" y2="812" gradientUnits="userSpaceOnUse">
<stop stop-color="#6269F0" stop-opacity="0.05"/>
<stop offset="0.291667" stop-color="#3740F5" stop-opacity="0.65"/>
<stop offset="0.5" stop-color="#2254F5"/>
<stop offset="0.713542" stop-color="#3740F5" stop-opacity="0.65"/>
<stop offset="1" stop-color="#6269F0" stop-opacity="0.05"/>
</linearGradient>
<clipPath id="clip0_1_6573">
<rect width="375" height="812" fill="white"/>
</clipPath>
</defs>
</svg>
